{"accessors":[{"name":"???_1_0_positions","componentType":5126,"count":66,"min":[-138.52626037597656,-126.8670654296875,140.71450805664062],"max":[136.09754943847656,-92.39775848388672,231.3397216796875],"type":"VEC3","bufferView":0,"byteOffset":0},{"name":"???_1_0_normals","componentType":5126,"count":66,"min":[-0.8027950525283813,-1,-0.8356493711471558],"max":[0.8027950525283813,1,0.8356496691703796],"type":"VEC3","bufferView":1,"byteOffset":0},{"name":"???_1_0_texcoords","componentType":5126,"count":66,"min":[0.10000000149011612,0.10000000149011612],"max":[0.8999999761581421,0.8999999761581421],"type":"VEC2","bufferView":2,"byteOffset":0},{"name":"???_1_0_indices","componentType":5123,"count":132,"min":[0],"max":[65],"type":"SCALAR","bufferView":3,"byteOffset":0},{"name":"???_0_1_0_positions","componentType":5126,"count":33,"min":[17.780031204223633,-126.8670654296875,-88.46328735351562],"max":[120.18474578857422,-92.39775848388672,2.161923885345459],"type":"VEC3","bufferView":0,"byteOffset":792},{"name":"???_0_1_0_normals","componentType":5126,"count":33,"min":[-0.8027950525283813,-1,-0.8356493711471558],"max":[0.8027950525283813,1,0.8356493711471558],"type":"VEC3","bufferView":1,"byteOffset":792},{"name":"???_0_1_0_texcoords","componentType":5126,"count":33,"min":[0.10000000149011612,0.10000000149011612],"max":[0.8999999761581421,0.8999999761581421],"type":"VEC2","bufferView":2,"byteOffset":528},{"name":"???_0_1_0_indices","componentType":5123,"count":66,"min":[0],"max":[32],"type":"SCALAR","bufferView":3,"byteOffset":264},{"name":"???_1_1_0_positions","componentType":5126,"count":33,"min":[17.780031204223633,-126.8670654296875,-207.8011016845703],"max":[120.18474578857422,-92.39775848388672,-117.17589569091797],"type":"VEC3","bufferView":0,"byteOffset":1188},{"name":"???_1_1_0_normals","componentType":5126,"count":33,"min":[-0.8027950525283813,-1,-0.8356493711471558],"max":[0.8027950525283813,1,0.8356493711471558],"type":"VEC3","bufferView":1,"byteOffset":1188},{"name":"???_1_1_0_texcoords","componentType":5126,"count":33,"min":[0.10000000149011612,0.10000000149011612],"max":[0.8999999761581421,0.8999999761581421],"type":"VEC2","bufferView":2,"byteOffset":792},{"name":"???_1_1_0_indices","componentType":5123,"count":66,"min":[0],"max":[32],"type":"SCALAR","bufferView":3,"byteOffset":396},{"name":"???_2_1_0_positions","componentType":5126,"count":33,"min":[-119.219970703125,-126.8670654296875,-88.46328735351562],"max":[-16.815256118774414,-92.39775848388672,2.161923885345459],"type":"VEC3","bufferView":0,"byteOffset":1584},{"name":"???_2_1_0_normals","componentType":5126,"count":33,"min":[-0.8027950525283813,-1,-0.8356493711471558],"max":[0.8027950525283813,1,0.8356493711471558],"type":"VEC3","bufferView":1,"byteOffset":1584},{"name":"???_2_1_0_texcoords","componentType":5126,"count":33,"min":[0.10000000149011612,0.10000000149011612],"max":[0.8999999761581421,0.8999999761581421],"type":"VEC2","bufferView":2,"byteOffset":1056},{"name":"???_2_1_0_indices","componentType":5123,"count":66,"min":[0],"max":[32],"type":"SCALAR","bufferView":3,"byteOffset":528},{"name":"???_3_1_0_positions","componentType":5126,"count":33,"min":[-119.219970703125,-126.8670654296875,-207.8011016845703],"max":[-16.815256118774414,-92.39775848388672,-117.17589569091797],"type":"VEC3","bufferView":0,"byteOffset":1980},{"name":"???_3_1_0_normals","componentType":5126,"count":33,"min":[-0.8027950525283813,-1,-0.8356493711471558],"max":[0.8027950525283813,1,0.8356493711471558],"type":"VEC3","bufferView":1,"byteOffset":1980},{"name":"???_3_1_0_texcoords","componentType":5126,"count":33,"min":[0.10000000149011612,0.10000000149011612],"max":[0.8999999761581421,0.8999999761581421],"type":"VEC2","bufferView":2,"byteOffset":1320},{"name":"???_3_1_0_indices","componentType":5123,"count":66,"min":[0],"max":[32],"type":"SCALAR","bufferView":3,"byteOffset":660},{"name":"???_0_1_1_0_positions","componentType":5126,"count":1089,"min":[88.83103942871094,-136.82545471191406,48.48213195800781],"max":[122.82176971435547,-37.5597038269043,147.7478790283203],"type":"VEC3","bufferView":0,"byteOffset":2376},{"name":"???_0_1_1_0_normals","componentType":5126,"count":1089,"min":[-1,-1,-1],"max":[1,1,1],"type":"VEC3","bufferView":1,"byteOffset":2376},{"name":"???_0_1_1_0_texcoords","componentType":5126,"count":1089,"min":[0,0],"max":[1,1],"type":"VEC2","bufferView":2,"byteOffset":1584},{"name":"???_0_1_1_0_indices","componentType":5123,"count":6144,"min":[0],"max":[1088],"type":"SCALAR","bufferView":3,"byteOffset":792},{"name":"???_1_1_1_0_positions","componentType":5126,"count":1089,"min":[88.83103942871094,-136.82545471191406,-327.5178527832031],"max":[122.82176971435547,-37.5597038269043,-228.2521209716797],"type":"VEC3","bufferView":0,"byteOffset":15444},{"name":"???_1_1_1_0_normals","componentType":5126,"count":1089,"min":[-1,-1,-1],"max":[1,1,1],"type":"VEC3","bufferView":1,"byteOffset":15444},{"name":"???_1_1_1_0_texcoords","componentType":5126,"count":1089,"min":[0,0],"max":[1,1],"type":"VEC2","bufferView":2,"byteOffset":10296},{"name":"???_1_1_1_0_indices","componentType":5123,"count":6144,"min":[0],"max":[1088],"type":"SCALAR","bufferView":3,"byteOffset":13080},{"name":"???_2_1_1_0_positions","componentType":5126,"count":1089,"min":[-121.16896057128906,-136.82545471191406,48.48213195800781],"max":[-87.17823028564453,-37.5597038269043,147.7478790283203],"type":"VEC3","bufferView":0,"byteOffset":28512},{"name":"???_2_1_1_0_normals","componentType":5126,"count":1089,"min":[-1,-1,-1],"max":[1,1,1],"type":"VEC3","bufferView":1,"byteOffset":28512},{"name":"???_2_1_1_0_texcoords","componentType":5126,"count":1089,"min":[0,0],"max":[1,1],"type":"VEC2","bufferView":2,"byteOffset":19008},{"name":"???_2_1_1_0_indices","componentType":5123,"count":6144,"min":[0],"max":[1088],"type":"SCALAR","bufferView":3,"byteOffset":25368},{"name":"???_3_1_1_0_positions","componentType":5126,"count":1089,"min":[-121.16896057128906,-136.82545471191406,-327.5178527832031],"max":[-87.17823028564453,-37.5597038269043,-228.2521209716797],"type":"VEC3","bufferView":0,"byteOffset":41580},{"name":"???_3_1_1_0_normals","componentType":5126,"count":1089,"min":[-1,-1,-1],"max":[1,1,1],"type":"VEC3","bufferView":1,"byteOffset":41580},{"name":"???_3_1_1_0_texcoords","componentType":5126,"count":1089,"min":[0,0],"max":[1,1],"type":"VEC2","bufferView":2,"byteOffset":27720},{"name":"???_3_1_1_0_indices","componentType":5123,"count":6144,"min":[0],"max":[1088],"type":"SCALAR","bufferView":3,"byteOffset":37656},{"name":"???.1_1_0_positions","componentType":5126,"count":50,"min":[-98.71257781982422,-89.14246368408203,-399.17449951171875],"max":[101.28742218017578,-40.788604736328125,22.116735458374023],"type":"VEC3","bufferView":0,"byteOffset":54648},{"name":"???.1_1_0_normals","componentType":5126,"count":50,"min":[-1,-1,-1],"max":[1,0,1],"type":"VEC3","bufferView":1,"byteOffset":54648},{"name":"???.1_1_0_texcoords","componentType":5126,"count":50,"min":[0,0],"max":[1,1],"type":"VEC2","bufferView":2,"byteOffset":36432},{"name":"???.1_1_0_indices","componentType":5123,"count":102,"min":[0],"max":[49],"type":"SCALAR","bufferView":3,"byteOffset":49944},{"name":"???.1_1_1_positions","componentType":5126,"count":36,"min":[-98.71257781982422,-89.14246368408203,-399.17449951171875],"max":[101.28742218017578,113.74455261230469,22.116735458374023],"type":"VEC3","bufferView":0,"byteOffset":55248},{"name":"???.1_1_1_normals","componentType":5126,"count":36,"min":[-1,0,-1],"max":[1,1,1],"type":"VEC3","bufferView":1,"byteOffset":55248},{"name":"???.1_1_1_texcoords","componentType":5126,"count":36,"min":[0,0],"max":[1,1],"type":"VEC2","bufferView":2,"byteOffset":36832},{"name":"???.1_1_1_indices","componentType":5123,"count":78,"min":[0],"max":[35],"type":"SCALAR","bufferView":3,"byteOffset":50148},{"name":"???_4_1_0_positions","componentType":5126,"count":54,"min":[-98.71257781982422,-100,24.002370834350586],"max":[101.28742218017578,95.1114730834961,222.77268981933594],"type":"VEC3","bufferView":0,"byteOffset":55680},{"name":"???_4_1_0_normals","componentType":5126,"count":54,"min":[-1,0,-1],"max":[1,0.6590708494186401,1],"type":"VEC3","bufferView":1,"byteOffset":55680},{"name":"???_4_1_0_texcoords","componentType":5126,"count":54,"min":[0,0.024443000555038452],"max":[1,1],"type":"VEC2","bufferView":2,"byteOffset":37120},{"name":"???_4_1_0_indices","componentType":5123,"count":108,"min":[0],"max":[53],"type":"SCALAR","bufferView":3,"byteOffset":50304},{"name":"???_4_1_1_positions","componentType":5126,"count":121,"min":[-98.71257781982422,-100,24.002370834350586],"max":[101.28742218017578,100,222.77268981933594],"type":"VEC3","bufferView":0,"byteOffset":56328},{"name":"???_4_1_1_normals","componentType":5126,"count":121,"min":[-1,-1,-1],"max":[1,1,1],"type":"VEC3","bufferView":1,"byteOffset":56328},{"name":"???_4_1_1_texcoords","componentType":5126,"count":121,"min":[0,0],"max":[1,1],"type":"VEC2","bufferView":2,"byteOffset":37552},{"name":"???_4_1_1_indices","componentType":5123,"count":396,"min":[0],"max":[120],"type":"SCALAR","bufferView":3,"byteOffset":50520}],"asset":{"generator":"obj2gltf","version":"2.0"},"buffers":[{"name":"g","byteLength":205392,"uri":"data:application/octet-stream;base64,"}],"bufferViews":[{"name":"bufferView_0","buffer":0,"byteLength":57780,"byteOffset":0,"byteStride":12,"target":34962},{"name":"bufferView_1","buffer":0,"byteLength":57780,"byteOffset":57780,"byteStride":12,"target":34962},{"name":"bufferView_2","buffer":0,"byteLength":38520,"byteOffset":115560,"byteStride":8,"target":34962},{"name":"bufferView_3","buffer":0,"byteLength":51312,"byteOffset":154080,"target":34963}],"materials":[{"name":"??.3","pbrMetallicRoughness":{"baseColorFactor":[1,0.95450001955032,0.09000000357628,1],"metallicFactor":0,"roughnessFactor":0.95},"emissiveFactor":[0,0,0],"alphaMode":"OPAQUE","doubleSided":false},{"name":"??.1","pbrMetallicRoughness":{"baseColorFactor":[0.11999999731779,0.11999999731779,0.11999999731779,1],"metallicFactor":0,"roughnessFactor":0.95},"emissiveFactor":[0,0,0],"alphaMode":"OPAQUE","doubleSided":false},{"name":"??.2","pbrMetallicRoughness":{"baseColorFactor":[0.14399999380112,0.80000001192093,0.35173332691193,1],"metallicFactor":0,"roughnessFactor":0.95},"emissiveFactor":[0,0,0],"alphaMode":"OPAQUE","doubleSided":false},{"name":"??","pbrMetallicRoughness":{"baseColorFactor":[0.80000001192093,0.80000001192093,0.80000001192093,1],"metallicFactor":0,"roughnessFactor":0.95},"emissiveFactor":[0,0,0],"alphaMode":"OPAQUE","doubleSided":false}],"meshes":[{"name":"???_1","primitives":[{"attributes":{"POSITION":0,"NORMAL":1,"TEXCOORD_0":2},"indices":3,"material":0,"mode":4}]},{"name":"???_0_1","primitives":[{"attributes":{"POSITION":4,"NORMAL":5,"TEXCOORD_0":6},"indices":7,"material":0,"mode":4}]},{"name":"???_1_1","primitives":[{"attributes":{"POSITION":8,"NORMAL":9,"TEXCOORD_0":10},"indices":11,"material":0,"mode":4}]},{"name":"???_2_1","primitives":[{"attributes":{"POSITION":12,"NORMAL":13,"TEXCOORD_0":14},"indices":15,"material":0,"mode":4}]},{"name":"???_3_1","primitives":[{"attributes":{"POSITION":16,"NORMAL":17,"TEXCOORD_0":18},"indices":19,"material":0,"mode":4}]},{"name":"???_0_1_1","primitives":[{"attributes":{"POSITION":20,"NORMAL":21,"TEXCOORD_0":22},"indices":23,"material":1,"mode":4}]},{"name":"???_1_1_1","primitives":[{"attributes":{"POSITION":24,"NORMAL":25,"TEXCOORD_0":26},"indices":27,"material":1,"mode":4}]},{"name":"???_2_1_1","primitives":[{"attributes":{"POSITION":28,"NORMAL":29,"TEXCOORD_0":30},"indices":31,"material":1,"mode":4}]},{"name":"???_3_1_1","primitives":[{"attributes":{"POSITION":32,"NORMAL":33,"TEXCOORD_0":34},"indices":35,"material":1,"mode":4}]},{"name":"???.1_1","primitives":[{"attributes":{"POSITION":36,"NORMAL":37,"TEXCOORD_0":38},"indices":39,"material":1,"mode":4},{"attributes":{"POSITION":40,"NORMAL":41,"TEXCOORD_0":42},"indices":43,"material":2,"mode":4}]},{"name":"???_4_1","primitives":[{"attributes":{"POSITION":44,"NORMAL":45,"TEXCOORD_0":46},"indices":47,"material":1,"mode":4},{"attributes":{"POSITION":48,"NORMAL":49,"TEXCOORD_0":50},"indices":51,"material":3,"mode":4}]}],"nodes":[{"name":"???","mesh":0},{"name":"???_0","mesh":1},{"name":"???_1","mesh":2},{"name":"???_2","mesh":3},{"name":"???_3","mesh":4},{"name":"???_0_1","mesh":5},{"name":"???_1_1","mesh":6},{"name":"???_2_1","mesh":7},{"name":"???_3_1","mesh":8},{"name":"???.1","mesh":9},{"name":"???_4","mesh":10}],"scene":0,"scenes":[{"nodes":[0,1,2,3,4,5,6,7,8,9,10]}]}